<?xml version="1.0" standalone="no"?><!DOCTYPE svg PUBLIC "-//W3C//DTD SVG 1.1//EN" "http://www.w3.org/Graphics/SVG/1.1/DTD/svg11.dtd"><svg t="1569489279945" class="icon" viewBox="0 0 1024 1024" version="1.1" xmlns="http://www.w3.org/2000/svg" p-id="525" xmlns:xlink="http://www.w3.org/1999/xlink" width="200" height="200"><defs><style type="text/css"></style></defs><path d="M202.667 256H160c-17.673 0-32-14.327-32-32 0-17.673 14.327-32 32-32h704c17.673 0 32 14.327 32 32 0 17.673-14.327 32-32 32H266.667v565.333c0 29.456 23.878 53.334 53.333 53.334h384c29.455 0 53.333-23.878 53.333-53.334V352c0-17.673 14.327-32 32-32 17.673 0 32 14.327 32 32v469.333c0 64.802-52.532 117.334-117.333 117.334H320c-64.801 0-117.333-52.532-117.333-117.334V256z m224-106.667c-17.673 0-32-14.327-32-32 0-17.673 14.327-32 32-32h170.666c17.673 0 32 14.327 32 32 0 17.673-14.327 32-32 32H426.667z m-32 288c0-17.673 14.327-32 32-32 17.673 0 32 14.327 32 32v256c0 17.673-14.327 32-32 32-17.673 0-32-14.327-32-32v-256z m170.666 0c0-17.673 14.327-32 32-32 17.673 0 32 14.327 32 32v256c0 17.673-14.327 32-32 32-17.673 0-32-14.327-32-32v-256z" fill="#000000" p-id="526"></path></svg>