<?xml version="1.0" standalone="no"?><!DOCTYPE svg PUBLIC "-//W3C//DTD SVG 1.1//EN" "http://www.w3.org/Graphics/SVG/1.1/DTD/svg11.dtd"><svg t="1569489301435" class="icon" viewBox="0 0 1024 1024" version="1.1" xmlns="http://www.w3.org/2000/svg" p-id="643" xmlns:xlink="http://www.w3.org/1999/xlink" width="200" height="200"><defs><style type="text/css"></style></defs><path d="M862.706 116.04c12.497-12.498 32.758-12.498 45.255 0 12.497 12.496 12.497 32.757 0 45.254l-452.52 452.52c-12.497 12.497-32.758 12.497-45.255 0s-12.497-32.758 0-45.255l452.52-452.52zM853.333 448c0-17.673 14.327-32 32-32 17.673 0 32 14.327 32 32v352c0 64.801-52.532 117.333-117.333 117.333H224c-64.801 0-117.333-52.532-117.333-117.333V224c0-64.801 52.532-117.333 117.333-117.333h341.333c17.673 0 32 14.327 32 32 0 17.673-14.327 32-32 32H224c-29.455 0-53.333 23.878-53.333 53.333v576c0 29.455 23.878 53.333 53.333 53.333h576c29.455 0 53.333-23.878 53.333-53.333V448z" fill="#000000" p-id="644"></path></svg>